<?xml version="1.0" standalone="no"?>
<!DOCTYPE svg PUBLIC "-//W3C//DTD SVG 20010904//EN"
 "http://www.w3.org/TR/2001/REC-SVG-20010904/DTD/svg10.dtd">
<svg version="1.0" xmlns="http://www.w3.org/2000/svg"
 width="512.000000pt" height="512.000000pt" viewBox="0 0 512.000000 512.000000"
 preserveAspectRatio="xMidYMid meet">

<g transform="translate(0.000000,512.000000) scale(0.100000,-0.100000)"
fill="#000000" stroke="none">
<path d="M2395 4594 c-22 -3 -78 -11 -125 -19 -89 -15 -2018 -590 -2092 -623
-74 -34 -124 -77 -152 -133 -47 -95 -27 -181 58 -256 62 -54 123 -79 426 -168
140 -42 299 -89 352 -106 l97 -29 3 -403 c4 -448 4 -447 76 -542 205 -272 871
-443 1637 -422 642 18 1145 155 1361 371 67 68 99 125 114 205 6 30 10 215 10
422 l0 368 88 26 c48 15 116 35 152 46 36 11 73 22 83 25 16 5 17 -30 17 -634
l0 -639 -42 -19 c-121 -54 -219 -165 -258 -291 -19 -61 -20 -93 -20 -457 0
-294 4 -403 14 -441 62 -233 296 -387 528 -347 190 33 340 170 383 353 19 81
22 765 4 851 -27 128 -128 260 -245 320 l-64 33 2 683 3 683 65 23 c129 45
202 101 235 178 48 117 -27 246 -180 308 -95 38 -1986 600 -2073 616 -85 15
-376 26 -457 18z m410 -314 c33 -7 420 -120 860 -251 979 -294 998 -299 993
-304 -5 -5 -1712 -518 -1794 -539 -104 -27 -289 -38 -430 -26 -146 13 -87 -4
-1182 325 -446 134 -788 242 -780 246 7 4 412 126 899 272 801 241 932 277
1049 291 60 7 322 -2 385 -14z m-1060 -1255 c248 -75 493 -143 545 -152 129
-21 412 -21 542 1 53 9 299 77 547 151 248 74 458 135 466 135 13 0 15 -42 15
-318 0 -285 -2 -320 -17 -342 -90 -128 -431 -241 -883 -292 -172 -19 -670 -16
-842 5 -286 35 -527 96 -682 172 -93 45 -128 71 -159 115 -15 22 -17 57 -17
342 0 296 1 318 18 318 9 0 220 -61 467 -135z m2958 -1229 c50 -18 76 -42 98
-91 17 -36 19 -72 19 -392 0 -225 -4 -362 -11 -380 -23 -63 -95 -113 -161
-113 -53 0 -115 37 -143 84 l-25 43 0 367 c0 395 0 395 53 444 25 24 88 51
117 51 8 0 32 -6 53 -13z"/>
</g>
</svg>
