<?xml version="1.0" standalone="no"?>
<!DOCTYPE svg PUBLIC "-//W3C//DTD SVG 20010904//EN"
 "http://www.w3.org/TR/2001/REC-SVG-20010904/DTD/svg10.dtd">
<svg version="1.0" xmlns="http://www.w3.org/2000/svg"
 width="512.000000pt" height="512.000000pt" viewBox="0 0 512.000000 512.000000"
 preserveAspectRatio="xMidYMid meet">

<g transform="translate(0.000000,512.000000) scale(0.100000,-0.100000)"
fill="#000000" stroke="none">
<path d="M2241 5103 c-54 -19 -183 -139 -237 -221 -74 -110 -97 -126 -147
-101 -12 7 -61 40 -108 75 -97 72 -143 94 -194 94 -104 0 -165 -93 -165 -249
0 -121 42 -241 147 -421 110 -188 265 -385 425 -541 l98 -95 -49 -35 c-210
-146 -484 -452 -706 -789 -323 -489 -526 -987 -601 -1475 -22 -149 -23 -410
-1 -531 31 -171 98 -343 180 -464 79 -115 207 -224 331 -280 150 -68 67 -64
1271 -68 793 -2 1110 0 1165 8 337 52 652 368 750 749 70 275 34 634 -106
1064 -171 523 -502 1085 -880 1495 -95 103 -96 100 31 81 122 -18 349 -13 437
10 195 51 293 152 305 316 8 97 -14 162 -76 225 -75 77 -133 94 -316 95 -155
0 -254 -15 -428 -66 -38 -11 -71 -18 -74 -16 -3 3 18 44 46 92 154 259 261
561 261 734 0 58 -3 66 -32 95 -75 75 -325 105 -453 56 -109 -42 -194 -110
-298 -237 -28 -35 -54 -63 -58 -63 -14 0 -90 108 -150 215 -86 154 -130 209
-192 240 -58 29 -110 31 -176 8z m112 -235 c13 -18 52 -83 86 -145 141 -249
259 -337 388 -288 48 19 94 60 205 187 86 97 144 128 237 128 37 0 77 -3 90
-7 21 -5 22 -10 17 -45 -40 -249 -293 -709 -497 -904 -56 -53 -75 -64 -154
-90 -76 -25 -106 -29 -195 -29 -97 0 -110 2 -173 32 -169 80 -386 300 -572
578 -107 161 -185 325 -185 390 0 24 1 24 60 -19 110 -81 200 -111 285 -95 86
16 144 62 211 166 42 66 141 173 160 173 7 0 24 -15 37 -32z m1550 -1039 c59
-16 80 -43 74 -91 -7 -51 -45 -92 -106 -114 -110 -39 -402 -26 -635 28 -85 19
-88 21 -65 34 80 41 388 130 514 147 63 8 181 6 218 -4z m-1573 -341 c48 -20
73 -23 200 -23 97 0 158 4 183 13 21 8 41 11 44 8 16 -16 -85 -244 -151 -340
-59 -85 -66 -119 -34 -166 31 -46 83 -61 132 -37 41 19 113 124 171 250 22 47
42 86 45 86 3 1 25 -36 49 -82 88 -165 199 -319 315 -439 41 -44 50 -48 92
-48 60 0 104 40 104 95 0 47 -12 68 -74 135 -62 65 -120 142 -170 225 l-37 60
62 -65 c320 -337 661 -911 821 -1380 98 -288 132 -474 132 -720 0 -176 -1
-189 -28 -270 -93 -279 -263 -471 -486 -552 l-65 -23 -1050 -3 c-702 -2 -1073
1 -1118 8 -252 39 -430 209 -520 495 -39 126 -50 228 -44 409 12 346 121 724
328 1137 220 440 572 908 859 1141 69 56 150 108 169 108 9 0 41 -10 71 -22z"/>
<path d="M2760 2290 c-155 -33 -289 -104 -407 -214 -74 -69 -164 -192 -184
-253 l-11 -33 -154 0 c-173 0 -202 -8 -230 -61 -31 -60 9 -139 77 -153 18 -3
80 -6 140 -6 l109 0 0 -70 0 -70 -120 0 c-138 0 -180 -12 -204 -59 -20 -38
-20 -64 0 -102 25 -49 64 -59 233 -59 l149 0 11 -31 c6 -17 36 -69 66 -114
148 -223 401 -364 663 -368 l93 -2 30 33 c32 36 38 77 15 120 -19 37 -48 50
-131 57 -199 18 -381 115 -483 259 l-33 46 191 0 c205 0 243 7 274 51 20 30
21 88 0 117 -30 44 -48 47 -299 52 l-240 5 0 65 0 65 240 5 c166 3 247 9 262
18 60 34 71 111 24 164 l-29 33 -211 3 -211 3 29 42 c102 146 287 247 483 263
76 7 86 10 116 40 45 45 45 93 -2 140 -32 32 -38 34 -102 33 -38 0 -107 -9
-154 -19z"/>
</g>
</svg>
