<?xml version="1.0" standalone="no"?>
<!DOCTYPE svg PUBLIC "-//W3C//DTD SVG 20010904//EN"
 "http://www.w3.org/TR/2001/REC-SVG-20010904/DTD/svg10.dtd">
<svg version="1.0" xmlns="http://www.w3.org/2000/svg"
 width="512.000000pt" height="512.000000pt" viewBox="0 0 512.000000 512.000000"
 preserveAspectRatio="xMidYMid meet">

<g transform="translate(0.000000,512.000000) scale(0.100000,-0.100000)"
fill="#000000" stroke="none">
<path d="M2400 5114 c-211 -27 -358 -60 -517 -120 -500 -186 -917 -599 -1109
-1095 -107 -276 -153 -599 -125 -864 81 -752 647 -1733 1612 -2790 180 -197
218 -232 263 -241 92 -17 115 0 335 241 265 291 430 488 630 754 685 911 1016
1674 988 2276 -23 493 -217 935 -562 1280 -286 285 -635 466 -1035 536 -111
19 -398 33 -480 23z m318 -324 c130 -14 231 -36 352 -77 474 -160 843 -529
1003 -1003 46 -137 64 -225 79 -388 18 -201 -3 -380 -73 -612 -171 -568 -602
-1263 -1250 -2015 -80 -93 -174 -199 -208 -235 l-61 -65 -61 65 c-98 104 -345
392 -472 553 -584 735 -951 1413 -1042 1924 -75 426 36 877 305 1233 330 435
887 677 1428 620z"/>
<path d="M2370 4139 c-187 -39 -349 -127 -486 -263 -138 -139 -224 -300 -263
-493 -27 -128 -27 -238 0 -366 39 -193 125 -354 263 -493 139 -138 300 -224
493 -263 128 -27 238 -27 366 0 193 39 354 125 493 263 138 139 224 300 263
493 27 128 27 238 0 366 -39 193 -125 354 -263 493 -230 229 -554 328 -866
263z m324 -314 c239 -50 441 -252 491 -491 96 -451 -308 -855 -759 -759 -183
39 -352 170 -434 336 -95 193 -95 385 0 578 126 256 420 396 702 336z"/>
</g>
</svg>
